grf
version=1
nRows=7
nColumns=37
inDegrees=no
endheader
time	ground_force_1_vx	ground_force_1_vy	ground_force_1_vz	ground_force_1_px	ground_force_1_py	ground_force_1_pz	ground_moment_1_mx	ground_moment_1_my	ground_moment_1_mz	ground_force_2_vx	ground_force_2_vy	ground_force_2_vz	ground_force_2_px	ground_force_2_py	ground_force_2_pz	ground_moment_2_mx	ground_moment_2_my	ground_moment_2_mz	ground_force_3_vx	ground_force_3_vy	ground_force_3_vz	ground_force_3_px	ground_force_3_py	ground_force_3_pz	ground_moment_3_mx	ground_moment_3_my	ground_moment_3_mz	ground_force_4_vx	ground_force_4_vy	ground_force_4_vz	ground_force_4_px	ground_force_4_py	ground_force_4_pz	ground_moment_4_mx	ground_moment_4_my	ground_moment_4_mz
      0.00000000	      0.00000000	     -0.00000000	      0.00000000	      0.00000000	      0.00000000	      0.00000000	      0.00000000	      0.00000000	      0.00000000	      3.34656668	     41.98042297	   -454.19869995	   -362.26917024	  -1093.17737053	      0.00000000	     -0.00000000	      0.00000000	   2882.63780456	      3.15582516	    -27.06665830	   -171.95198059	   -350.69621642	   -734.33037494	      0.00000000	      0.00000000	     -0.00000000	  -2618.32836451	      0.00000000	     -0.00000000	      0.00000000	      0.00000000	      0.00000000	      0.00000000	      0.00000000	      0.00000000	      0.00000000
      0.01000000	      0.00000000	     -0.00000000	      0.00000000	      0.00000000	      0.00000000	      0.00000000	      0.00000000	      0.00000000	      0.00000000	      2.50000238	     40.69750977	   -439.36419678	   -362.61957843	  -1092.39241455	      0.00000000	      0.00000000	      0.00000000	   2833.69981487	      3.32545079	    -28.52790480	   -177.54832458	   -349.83131421	   -735.83271872	      0.00000000	      0.00000000	     -0.00000000	  -2599.86859754	      0.00000000	     -0.00000000	      0.00000000	      0.00000000	      0.00000000	      0.00000000	      0.00000000	      0.00000000	      0.00000000
      0.02000000	      0.00000000	     -0.00000000	      0.00000000	      0.00000000	      0.00000000	      0.00000000	      0.00000000	      0.00000000	      0.00000000	      1.82599819	     38.77360153	   -425.73983765	   -361.50414716	  -1092.00192858	      0.00000000	     -0.00000000	      0.00000000	   2846.39544696	      3.72585031	    -30.42357477	   -184.87150574	   -349.92938830	   -734.23605585	      0.00000000	      0.00000000	     -0.00000000	  -2863.84734207	      0.00000000	     -0.00000000	      0.00000000	      0.00000000	      0.00000000	      0.00000000	      0.00000000	      0.00000000	      0.00000000
      0.03000000	      0.00000000	     -0.00000000	      0.00000000	      0.00000000	      0.00000000	      0.00000000	      0.00000000	      0.00000000	      0.00000000	      0.75911254	     37.38773727	   -416.04595947	   -360.90645562	  -1092.13990808	      0.00000000	      0.00000000	      0.00000000	   2941.39855329	      2.71045340	    -31.30908608	   -190.28762817	   -349.99826177	   -735.28945563	      0.00000000	      0.00000000	     -0.00000000	  -2848.97716252	      0.00000000	     -0.00000000	      0.00000000	      0.00000000	      0.00000000	      0.00000000	      0.00000000	      0.00000000	      0.00000000
      0.04000000	      0.00000000	     -0.00000000	      0.00000000	      0.00000000	      0.00000000	      0.00000000	      0.00000000	      0.00000000	      0.00000000	      0.17700812	     36.49819565	   -409.34112549	   -359.48361483	  -1092.25635694	      0.00000000	      0.00000000	      0.00000000	   3021.13492680	      2.61953197	    -31.61916374	   -193.59446716	   -349.93291108	   -736.29952019	      0.00000000	      0.00000000	     -0.00000000	  -2974.18318604	      0.00000000	     -0.00000000	      0.00000000	      0.00000000	      0.00000000	      0.00000000	      0.00000000	      0.00000000	      0.00000000
      0.05000000	      0.00000000	     -0.00000000	      0.00000000	      0.00000000	      0.00000000	      0.00000000	      0.00000000	      0.00000000	      0.00000000	     -0.49242604	     36.45315552	   -402.79940796	   -359.17373278	  -1091.58115343	      0.00000000	      0.00000000	      0.00000000	   2921.51176166	      2.53047188	    -31.88118766	   -198.14645386	   -350.42159612	   -738.64372025	      0.00000000	     -0.00000000	     -0.00000000	  -3219.04538191	      0.00000000	     -0.00000000	      0.00000000	      0.00000000	      0.00000000	      0.00000000	      0.00000000	      0.00000000	      0.00000000
      0.06000000	      0.00000000	     -0.00000000	      0.00000000	      0.00000000	      0.00000000	      0.00000000	      0.00000000	      0.00000000	      0.00000000	     -0.35873854	     36.14095688	   -397.32366943	   -358.28478294	  -1091.86757666	      0.00000000	      0.00000000	      0.00000000	   2919.90956598	      2.43891936	    -32.14785406	   -205.30606079	   -350.93709166	   -737.51913477	      0.00000000	      0.00000000	     -0.00000000	  -3235.52400872	      0.00000000	     -0.00000000	      0.00000000	      0.00000000	      0.00000000	      0.00000000	      0.00000000	      0.00000000	      0.00000000
